<svg xmlns="http://www.w3.org/2000/svg" width="359.298" height="512" viewBox="0 0 359.298 512">
  <g id="student_6_" data-name="student (6)" opacity="0.1">
    <path id="Path_44186" data-name="Path 44186" d="M107.789,287.438H251.508a89.826,89.826,0,0,1,89.824,89.824V512H17.965V377.262a89.826,89.826,0,0,1,89.824-89.824Zm0,0" fill="#005a95"/>
    <path id="Path_44187" data-name="Path 44187" d="M134.738,404.211,89.824,350.316l44.914-21.961Zm0,0" fill="#004d80"/>
    <path id="Path_44188" data-name="Path 44188" d="M224.563,404.211l44.91-53.895-44.91-21.961Zm0,0" fill="#004d80"/>
    <path id="Path_44189" data-name="Path 44189" d="M17.965,476.07H71.859V512H17.965Zm0,0" fill="#f2c09a"/>
    <path id="Path_44190" data-name="Path 44190" d="M0,440.141H71.859v35.93H0Zm0,0" fill="#004d80"/>
    <path id="Path_44191" data-name="Path 44191" d="M224.563,287.438v70.871a62.79,62.79,0,0,1-88.789,1.121c-.2-.191-.395-.387-.586-.582a2.292,2.292,0,0,1-.449-.539V287.438Zm0,0" fill="#f2c09a"/>
    <path id="Path_44192" data-name="Path 44192" d="M224.563,512H134.739V358.4a62.9,62.9,0,0,0,89.824,0Zm0,0" fill="#e6e6e6"/>
    <path id="Path_44193" data-name="Path 44193" d="M62.879,386.246H80.844V512H62.879Zm0,0" fill="#003f69"/>
    <path id="Path_44194" data-name="Path 44194" d="M287.438,476.07h53.895V512H287.438Zm0,0" fill="#f2c09a"/>
    <path id="Path_44195" data-name="Path 44195" d="M287.438,440.141H359.3v35.93H287.438Zm0,0" fill="#004d80"/>
    <path id="Path_44196" data-name="Path 44196" d="M278.457,386.246h17.965V512H278.457Zm0,0" fill="#003f69"/>
    <path id="Path_44197" data-name="Path 44197" d="M196.625,314.387H162.672a99.8,99.8,0,0,1-99.793-99.8V73.3A73.3,73.3,0,0,1,136.176,0h86.949a73.3,73.3,0,0,1,73.3,73.3V214.59a99.8,99.8,0,0,1-99.8,99.8Zm0,0" fill="#f2c09a"/>
    <path id="Path_44198" data-name="Path 44198" d="M125.754.828A73.237,73.237,0,0,0,62.879,73.3v70.422l62.875-71.859Zm0,0" fill="#534741"/>
    <path id="Path_44199" data-name="Path 44199" d="M223.125,0H136.176a73.309,73.309,0,0,0-10.422.828V71.859a44.915,44.915,0,0,0,44.914,44.914H296.422V73.3A73.3,73.3,0,0,0,223.125,0Zm0,0" fill="#423934"/>
    <path id="Path_44200" data-name="Path 44200" d="M296.422,143.719h8.98a26.947,26.947,0,1,1,0,53.895h-8.98Zm0,0" fill="#cc9c72"/>
    <path id="Path_44201" data-name="Path 44201" d="M62.879,197.613H53.895a26.947,26.947,0,0,1,0-53.895h8.984Zm0,0" fill="#cc9c72"/>
    <path id="Path_44202" data-name="Path 44202" d="M113.852,279.535A99.786,99.786,0,0,1,89.825,214.59V98.809H62.879V214.59a99.8,99.8,0,0,0,99.793,99.8h26.949a99.786,99.786,0,0,1-75.77-34.852Zm0,0" fill="#e8b894"/>
    <path id="Path_44203" data-name="Path 44203" d="M89.824,73.3a73.059,73.059,0,0,1,35.93-62.879V.828A73.237,73.237,0,0,0,62.879,73.3v70.422l26.945-30.8Zm0,0" fill="#423934"/>
    <path id="Path_44204" data-name="Path 44204" d="M116.773,152.7h26.945a17.965,17.965,0,0,1,17.965,17.965v17.965A17.965,17.965,0,0,1,143.718,206.6H116.773a17.965,17.965,0,0,1-17.965-17.965V170.668A17.965,17.965,0,0,1,116.773,152.7Zm0,0" fill="#e6e6e6"/>
    <path id="Path_44205" data-name="Path 44205" d="M242.527,206.6H215.578a17.965,17.965,0,0,1-17.965-17.965V170.668A17.965,17.965,0,0,1,215.578,152.7h26.949a17.965,17.965,0,0,1,17.965,17.965v17.965A17.965,17.965,0,0,1,242.527,206.6Zm0,0" fill="#e6e6e6"/>
    <path id="Path_44206" data-name="Path 44206" d="M161.684,170.668h35.93v17.965h-35.93Zm0,0" fill="#423934"/>
    <path id="Path_44207" data-name="Path 44207" d="M143.719,179.648a8.982,8.982,0,1,1-8.98-8.98A8.982,8.982,0,0,1,143.719,179.648Zm0,0" fill="#a67c52"/>
    <path id="Path_44208" data-name="Path 44208" d="M233.543,179.648a8.982,8.982,0,1,1-8.98-8.98A8.982,8.982,0,0,1,233.543,179.648Zm0,0" fill="#a67c52"/>
    <path id="Path_44209" data-name="Path 44209" d="M98.809,166.9V192.4l-35.93-35.93V130.965Zm0,0" fill="#423934"/>
    <path id="Path_44210" data-name="Path 44210" d="M260.492,166.9V192.4l35.93-35.93V130.965Zm0,0" fill="#423934"/>
    <path id="Path_44211" data-name="Path 44211" d="M224.563,310.254v27.039a100.044,100.044,0,0,1-27.937,4.039H162.672a100.017,100.017,0,0,1-27.934-4.039V310.254a97.359,97.359,0,0,0,27.934,4.133h33.953A97.385,97.385,0,0,0,224.563,310.254Zm0,0" fill="#cc9c72"/>
    <path id="Path_44212" data-name="Path 44212" d="M188.633,287.438H170.668a8.982,8.982,0,1,1,0-17.965h17.965a8.982,8.982,0,0,1,0,17.965Zm0,0" fill="#a67c52"/>
  </g>
</svg>
